<?xml version="1.0" encoding="UTF-8"?>
<svg id="Capa_2" data-name="Capa 2" xmlns="http://www.w3.org/2000/svg" viewBox="0 0 4000 4000">
  <defs>
    <style>
      .cls-1 {
        fill: none;
        stroke: #2d4059;
        stroke-miterlimit: 10;
        stroke-width: 100px;
      }
    </style>
  </defs>
  <rect class="cls-1" x="1160.74" y="1669.02" width="1164.43" height="214.21" rx="9.97" ry="9.97" transform="translate(1525.48 -702.83) rotate(39.45)"/>
  <rect class="cls-1" x="1645.1" y="891.52" width="1011.94" height="777.15" transform="translate(4506.28 432.31) rotate(129.45)"/>
  <rect class="cls-1" x="720.73" y="2861.12" width="1860.35" height="318.57" rx="9.97" ry="9.97"/>
  <rect class="cls-1" x="349.98" y="3196.17" width="2601.86" height="340.54" rx="9.97" ry="9.97"/>
  <rect class="cls-1" x="1961.61" y="662.62" width="1164.43" height="214.21" rx="9.97" ry="9.97" transform="translate(1068.48 -1440.9) rotate(39.45)"/>
  <path class="cls-1" d="m2286,1738.99s265.93,16.48,514.93,252.66c249,236.18,766.68,958.46,982.72,725.03,76.75-82.93,199.57-197.73-161.57-473.74-464.59-355.07-397.76-223.82-679.71-460.01-281.95-236.18-350.61-417.44-350.61-417.44l-305.76,373.5Z"/>
  <line class="cls-1" x1="1712.53" y1="1201.52" x2="2314.5" y2="1693.06"/>
  <line class="cls-1" x1="1957.65" y1="870.59" x2="2559.62" y2="1362.12"/>
</svg>