<?xml version="1.0" standalone="no"?>
<!DOCTYPE svg PUBLIC "-//W3C//DTD SVG 20010904//EN"
 "http://www.w3.org/TR/2001/REC-SVG-20010904/DTD/svg10.dtd">
<svg version="1.0" xmlns="http://www.w3.org/2000/svg"
 width="4000.000000pt" height="4000.000000pt" viewBox="0 0 4000.000000 4000.000000"
 preserveAspectRatio="xMidYMid meet">

<g transform="translate(0.000000,4000.000000) scale(0.100000,-0.100000)"
fill="#000000" stroke="none">
<path d="M21542 37280 c-122 -22 -224 -73 -309 -152 -28 -27 -336 -395 -685
-818 -703 -853 -706 -858 -734 -1024 -33 -193 34 -398 174 -528 26 -24 311
-261 635 -527 323 -265 587 -486 587 -489 0 -9 -6159 -7496 -6169 -7499 -3 -1
-248 198 -544 441 -372 306 -558 453 -600 474 -87 43 -171 62 -269 62 -137 0
-271 -46 -373 -127 -39 -31 -900 -1064 -1307 -1569 -109 -135 -149 -243 -149
-406 0 -168 63 -312 187 -428 32 -31 2047 -1691 4477 -3690 2888 -2377 4441
-3648 4484 -3672 125 -69 293 -90 432 -54 88 23 195 81 258 141 29 27 341 401
693 830 663 807 681 830 715 960 20 77 19 221 -1 299 -21 83 -78 189 -134 248
-25 27 -279 241 -565 476 -286 235 -520 433 -520 440 0 6 261 329 580 717 490
595 584 705 605 705 42 0 301 -48 494 -91 1143 -257 2302 -804 3312 -1562 759
-569 1201 -1014 2879 -2892 750 -841 1298 -1445 1654 -1825 516 -552 1210
-1253 1591 -1610 1438 -1346 2520 -2031 3475 -2201 150 -27 467 -37 611 -20
476 56 849 254 1208 639 405 435 579 665 721 957 115 234 176 437 206 679 15
125 6 428 -16 551 -101 557 -383 1084 -906 1695 -164 191 -587 615 -813 816
-516 457 -1385 1127 -2415 1863 -1063 760 -1721 1174 -2712 1707 -607 326
-805 443 -1154 678 -576 390 -1355 1016 -2060 1656 -221 201 -754 728 -955
945 -516 557 -888 1023 -1235 1545 -221 333 -423 684 -412 714 3 8 342 423
753 922 411 500 748 910 750 912 1 2 208 -166 460 -373 324 -267 477 -386 525
-411 223 -112 496 -74 671 93 32 31 342 401 690 824 662 804 689 840 723 974
19 75 19 202 0 283 -20 84 -73 187 -130 250 -64 71 -8920 7358 -8993 7400
-113 64 -269 93 -390 72z m4255 -4531 c2254 -1854 4102 -3375 4107 -3379 4 -5
-155 -206 -355 -449 l-362 -440 -23 17 c-119 88 -8193 6740 -8191 6748 3 14
710 874 719 874 4 0 1851 -1517 4105 -3371z m-1368 -2044 c1424 -1171 2589
-2134 2588 -2139 -3 -11 -1320 -1615 -1327 -1615 -8 -1 -5235 4269 -5238 4279
-2 5 299 376 668 825 l671 816 24 -18 c14 -10 1190 -976 2614 -2148z m-2019
-2368 c1422 -1161 2598 -2122 2613 -2137 l29 -27 -988 -1201 -988 -1201 -46
37 c-25 20 -1206 984 -2623 2141 l-2576 2104 17 23 c100 134 1960 2380 1967
2376 6 -3 1173 -955 2595 -2115z m-2618 -3173 c1426 -1164 2605 -2128 2620
-2143 l26 -26 -601 -732 c-331 -403 -607 -730 -613 -728 -8 2 -5170 4244
-5223 4291 -3 3 1188 1454 1194 1454 3 0 1171 -952 2597 -2116z m-1972 -2504
c2243 -1845 4079 -3357 4079 -3360 1 -7 -668 -822 -703 -858 l-23 -24 -4104
3377 c-2257 1857 -4105 3379 -4106 3383 -2 4 160 204 358 445 l361 438 29 -23
c17 -13 1865 -1533 4109 -3378z m8221 2441 c844 -1284 2146 -2625 3796 -3907
282 -219 524 -395 783 -570 365 -245 542 -349 1370 -796 1041 -563 1984 -1191
3495 -2328 876 -658 1220 -945 1651 -1375 741 -740 1079 -1340 1033 -1837 -30
-319 -219 -621 -693 -1106 -158 -162 -278 -237 -451 -283 -123 -32 -329 -30
-497 5 -1016 210 -2433 1331 -4528 3581 -399 429 -765 834 -1821 2015 -1136
1272 -1693 1848 -2223 2303 -1023 878 -2201 1545 -3441 1950 -187 61 -466 142
-617 178 -54 12 -98 27 -98 31 0 5 455 565 1012 1244 l1011 1236 41 -67 c23
-37 102 -160 177 -274z"/>
<path d="M7187 11875 c-176 -35 -341 -165 -416 -326 -21 -46 -44 -108 -50
-137 -8 -37 -11 -472 -11 -1462 l0 -1410 -1607 -2 -1608 -3 -85 -31 c-158 -56
-279 -162 -346 -301 -67 -139 -64 -37 -64 -1868 0 -1415 2 -1670 15 -1729 45
-214 217 -393 436 -453 61 -17 681 -18 13059 -18 12378 0 12998 1 13059 18
205 56 364 213 428 422 17 57 18 138 18 1760 0 1622 -1 1703 -18 1760 -63 205
-208 351 -417 422 -52 17 -131 18 -1662 21 l-1608 2 0 1403 c0 1554 3 1475
-66 1617 -28 56 -57 95 -114 151 -90 90 -181 139 -302 163 -70 15 -951 16
-9325 15 -7711 -1 -9259 -3 -9316 -14z m18123 -2080 l0 -1095 -8800 0 -8800 0
0 1095 0 1095 8800 0 8800 0 0 -1095z m3710 -3460 l0 -1205 -12510 0 -12510 0
0 1205 0 1205 12510 0 12510 0 0 -1205z"/>
</g>
</svg>
